<svg width="32" height="32" viewBox="0 0 32 32" fill="none" xmlns="http://www.w3.org/2000/svg">
<path d="M19.6 18L19.3333 18.4C20.6917 16.8344 21.3893 14.8027 21.2794 12.7329C21.1694 10.6631 20.2604 8.71674 18.7438 7.30387C17.2273 5.891 15.2215 5.12189 13.1491 5.15856C11.0767 5.19523 9.09944 6.03481 7.6338 7.50045C6.16816 8.96609 5.32857 10.9434 5.2919 13.0158C5.25523 15.0882 6.02434 17.0939 7.43721 18.6105C8.85008 20.1271 10.7964 21.0361 12.8662 21.146C14.936 21.256 16.9677 20.5583 18.5333 19.2L17.7333 19.7333L24 25.7333C24.2423 25.8303 24.5078 25.8541 24.7634 25.8016C25.0191 25.7492 25.2538 25.6228 25.4383 25.4383C25.6229 25.2537 25.7492 25.0191 25.8016 24.7634C25.8541 24.5077 25.8303 24.2423 25.7333 24L19.6 18V18ZM13.3333 18.6667C11.8658 18.6667 10.4584 18.0837 9.42069 17.046C8.38299 16.0083 7.80001 14.6009 7.80001 13.1333C7.80001 11.6658 8.38299 10.2584 9.42069 9.22068C10.4584 8.18298 11.8658 7.6 13.3333 7.6C14.8009 7.6 16.2083 8.18298 17.246 9.22068C18.2837 10.2584 18.8667 11.6658 18.8667 13.1333C18.8667 14.6009 18.2837 16.0083 17.246 17.046C16.2083 18.0837 14.8009 18.6667 13.3333 18.6667Z" fill="#808080"/>
</svg>
